<svg width="399" height="41" viewBox="0 0 399 41" fill="none" xmlns="http://www.w3.org/2000/svg">
<path d="M16.677 27.87H45.951V38.682H16.677C6.732 38.682 1.581 38.478 1.581 31.134C1.581 23.229 3.774 20.679 15.759 17.721L16.422 17.568C16.524 17.517 16.626 17.517 16.677 17.466L32.385 13.743C24.939 13.743 3.162 13.59 1.683 13.539V2.727L32.538 2.982C42.483 2.982 46.053 3.186 46.053 10.53C46.053 18.639 45.339 21.036 32.538 24.096L16.677 27.87ZM91.7781 13.794H63.9831V15.783H85.0461V25.881H63.9831V27.87H91.7781V38.682H51.4881V2.982H91.7781V13.794ZM95.207 2.982H136.619V14.457H122.135V38.682H109.691V14.457H95.207V2.982ZM177.75 12.264L188.052 38.682H175.047L166.785 18.537C165.918 16.446 165.153 14.457 163.368 14.457H157.962C156.177 14.457 155.412 16.446 154.545 18.537L146.283 38.682H133.278L143.529 12.264C146.487 5.17501 150.363 2.982 157.962 2.982H163.368C171.018 2.982 174.792 5.17501 177.75 12.264ZM166.071 24.249C166.836 24.249 167.55 24.657 167.856 25.269C168.213 25.932 168.213 26.748 167.754 27.36C166.071 29.91 163.725 33.429 162.144 35.826C161.736 36.387 161.073 36.744 160.41 36.744C159.747 36.693 159.084 36.336 158.727 35.775C157.248 33.378 155.004 29.859 153.423 27.309C153.066 26.697 153.015 25.932 153.372 25.269C153.729 24.606 154.392 24.249 155.157 24.249H166.071ZM220.757 27.207C223.205 27.207 224.735 26.391 224.735 23.943H237.179C237.179 35.061 232.895 38.682 221.777 38.682H204.335C193.217 38.682 188.933 30.981 188.933 23.943V17.721C188.933 10.071 193.217 2.982 204.335 2.982H221.777C232.895 2.982 237.179 6.60301 237.179 17.721H224.735C224.735 15.273 223.205 14.457 220.757 14.457H205.355C202.907 14.457 201.428 16.293 201.428 18.741V22.923C201.428 25.371 202.907 27.207 205.355 27.207H220.757ZM274.207 2.982C285.325 2.982 289.609 10.071 289.609 17.721V23.943C289.609 30.981 285.325 38.682 274.207 38.682H256.765C245.647 38.682 241.363 30.981 241.363 23.943V17.721C241.363 10.071 245.647 2.982 256.765 2.982H274.207ZM277.165 22.923V18.741C277.165 16.293 275.635 14.457 273.187 14.457H257.785C255.337 14.457 253.858 16.293 253.858 18.741V22.923C253.858 25.371 255.337 27.207 257.785 27.207H273.187C275.635 27.207 277.165 25.371 277.165 22.923ZM343.01 16.242C343.01 23.28 340.307 27.207 334.799 28.788L343.01 38.682H327.2L320.366 29.604H307.259V38.682H294.764V2.982H327.914C337.91 2.982 343.01 6.756 343.01 16.242ZM327.914 18.792C329.546 18.792 330.362 18.078 330.362 16.446C330.362 15.069 329.546 14.457 327.914 14.457H307.259V18.792H327.914ZM381.141 2.982C391.137 2.982 396.237 6.756 396.237 16.242C396.237 25.779 391.29 29.604 381.141 29.604H360.486V38.682H347.991V2.982H381.141ZM381.141 18.792C382.773 18.792 383.589 18.078 383.589 16.446C383.589 15.069 382.773 14.457 381.141 14.457H360.486V18.792H381.141Z" fill="#FF0000"/>
</svg>
