<svg width="1200" height="630" viewBox="0 0 1200 630" xmlns="http://www.w3.org/2000/svg">

  <!-- White background -->
  <rect width="1200" height="580" fill="#FFFFFF"/>

  <!-- Decorative red accent top-right -->
  <rect x="1148" y="0" width="52" height="130" rx="6" fill="#FFD6D6" opacity="0.85"/>
  <rect x="1166" y="0" width="34" height="78" rx="5" fill="#FFB0B0" opacity="0.6"/>

  <!-- ZETACORP wordmark -->
  <text x="58" y="84" font-family="Arial Black, Arial, sans-serif" font-weight="900" font-size="46" fill="#FF0000" letter-spacing="-1">ZETACORP</text>
  <text x="318" y="84" font-family="Arial, Helvetica, sans-serif" font-weight="300" font-size="46" fill="#6B7280" letter-spacing="1">SOLUTIONS</text>

  <!-- Eyebrow label -->
  <text x="60" y="196" font-family="Arial, Helvetica, sans-serif" font-weight="700" font-size="12.5" fill="#FF0000" letter-spacing="2.8">DATA-DRIVEN DIGITAL MARKETING AGENCY</text>

  <!-- Headline -->
  <text x="58" y="276" font-family="Arial Black, Arial, sans-serif" font-weight="900" font-size="66" fill="#111111">Grow. Scale.</text>
  <text x="58" y="358" font-family="Arial Black, Arial, sans-serif" font-weight="900" font-size="66">
    <tspan fill="#111111">Market </tspan><tspan fill="#FF0000">Smarter.</tspan>
  </text>

  <!-- Sub-tagline -->
  <text x="60" y="418" font-family="Arial, Helvetica, sans-serif" font-size="17" fill="#444444">Your growth partner — not just another vendor.</text>

  <!-- ── Right panel ── -->
  <rect x="592" y="28" width="574" height="524" rx="3" fill="#F1F1F1"/>
  <!-- Red left-edge accent -->
  <rect x="592" y="28" width="5" height="524" fill="#FF0000"/>

  <!-- Panel heading -->
  <text x="622" y="80" font-family="Arial, Helvetica, sans-serif" font-weight="700" font-size="13" fill="#FF0000" letter-spacing="2.5">OUR SERVICES</text>

  <!-- Service pills — Row 1 -->
  <rect x="620" y="95"  width="252" height="44" rx="22" fill="white"/>
  <text x="648" y="122" font-family="Arial, Helvetica, sans-serif" font-size="15" fill="#111111">Social Media Management</text>
  <rect x="884" y="95"  width="252" height="44" rx="22" fill="white"/>
  <text x="912" y="122" font-family="Arial, Helvetica, sans-serif" font-size="15" fill="#111111">SEO &amp; Content</text>

  <!-- Row 2 -->
  <rect x="620" y="150" width="252" height="44" rx="22" fill="white"/>
  <text x="648" y="177" font-family="Arial, Helvetica, sans-serif" font-size="15" fill="#111111">Meta &amp; Google Ads</text>
  <rect x="884" y="150" width="252" height="44" rx="22" fill="white"/>
  <text x="912" y="177" font-family="Arial, Helvetica, sans-serif" font-size="15" fill="#111111">Branding &amp; Identity</text>

  <!-- Row 3 -->
  <rect x="620" y="205" width="252" height="44" rx="22" fill="white"/>
  <text x="648" y="232" font-family="Arial, Helvetica, sans-serif" font-size="15" fill="#111111">AI-Powered Marketing</text>
  <rect x="884" y="205" width="252" height="44" rx="22" fill="white"/>
  <text x="912" y="232" font-family="Arial, Helvetica, sans-serif" font-size="15" fill="#111111">Web Design &amp; Presence</text>

  <!-- Row 4 — Stats -->
  <rect x="620" y="260" width="252" height="44" rx="22" fill="white"/>
  <text x="648" y="287" font-family="Arial, Helvetica, sans-serif" font-size="15" fill="#111111">Content Strategy</text>
  <rect x="884" y="260" width="252" height="44" rx="22" fill="white"/>
  <text x="912" y="287" font-family="Arial, Helvetica, sans-serif" font-size="15" fill="#111111">Performance Analytics</text>

  <!-- Row 5 -->
  <rect x="620" y="315" width="252" height="44" rx="22" fill="white"/>
  <text x="648" y="342" font-family="Arial, Helvetica, sans-serif" font-size="15" fill="#111111">50+ Brands Grown</text>
  <rect x="884" y="315" width="252" height="44" rx="22" fill="white"/>
  <text x="912" y="342" font-family="Arial, Helvetica, sans-serif" font-size="15" fill="#111111">3.2× Average ROI</text>

  <!-- CTA button -->
  <rect x="620" y="380" width="516" height="56" rx="4" fill="#FF0000"/>
  <text x="878" y="414" font-family="Arial, Helvetica, sans-serif" font-weight="700" font-size="15" fill="white" text-anchor="middle">Get Your Free Digital Audit — No Commitment</text>

  <!-- ── Dark footer bar ── -->
  <rect y="580" width="1200" height="50" fill="#111111"/>
  <text x="68" y="611" font-family="Arial, Helvetica, sans-serif" font-size="13" fill="#999999">Coimbatore, Tamil Nadu</text>
  <text x="600" y="611" font-family="Arial, Helvetica, sans-serif" font-size="13" fill="#999999" text-anchor="middle">Innovate · Market · Dominate</text>
  <text x="1132" y="611" font-family="Arial, Helvetica, sans-serif" font-size="13" fill="#999999" text-anchor="end">www.zetacorpsolutions.com</text>

</svg>
